<?xml version="1.0" encoding="utf-8"?>
<!-- Generator: Adobe Illustrator 15.1.0, SVG Export Plug-In . SVG Version: 6.00 Build 0)  -->
<!DOCTYPE svg PUBLIC "-//W3C//DTD SVG 1.1//EN" "http://www.w3.org/Graphics/SVG/1.1/DTD/svg11.dtd">
<svg version="1.1" id="Layer_1" xmlns="http://www.w3.org/2000/svg" xmlns:xlink="http://www.w3.org/1999/xlink" x="0px" y="0px"
	 width="1000px" height="731.25px" viewBox="0 0 1000 731.25" enable-background="new 0 0 1000 731.25" xml:space="preserve">
<g id="ruuminr">
	<g id="room201">
		<rect x="140.604" y="0.115" fill="#84D05F" width="147.418" height="111.853"/>
	</g>
	<g id="room202">
		<polygon fill="#84D05F" points="422.03,146.952 422.03,114.263 140.313,114.263 140.313,377.717 422.03,377.717 422.03,377.555 
			623.286,377.555 623.286,309.599 623.286,146.952 		"/>
	</g>
	<g id="room203">
		<polygon fill="#84D05F" points="686.548,606.521 675.58,533.814 671.695,497.807 662.156,378.914 210.87,378.914 210.87,378.43 
			188.609,378.43 188.609,379.4 141.186,379.4 141.186,608.059 195.996,608.059 195.996,585.029 210.87,585.029 210.87,533.814 
			322.714,533.814 322.714,645.211 238.364,645.211 238.364,650.914 695.924,650.914 692.822,637.533 		"/>
	</g>
	<g id="room204">
		<polygon fill="#84D05F" points="188.609,659.33 188.609,643.334 161.399,643.334 161.399,659.33 52.366,659.33 52.366,618.213 
			0,618.213 0,730.787 52.03,730.787 52.03,731.133 188.998,731.133 188.998,659.33 		"/>
	</g>
</g>
</svg>
