<?xml version="1.0" encoding="utf-8"?>
<!-- Generator: Adobe Illustrator 15.1.0, SVG Export Plug-In . SVG Version: 6.00 Build 0)  -->
<!DOCTYPE svg PUBLIC "-//W3C//DTD SVG 1.1//EN" "http://www.w3.org/Graphics/SVG/1.1/DTD/svg11.dtd">
<svg version="1.1" id="Layer_1" xmlns="http://www.w3.org/2000/svg" xmlns:xlink="http://www.w3.org/1999/xlink" x="0px" y="0px"
	 width="1000px" height="731.25px" viewBox="0 0 1000 731.25" enable-background="new 0 0 1000 731.25" xml:space="preserve">
<g id="ruuminr">
	<g id="room001">
		<polygon fill="#84D05F" points="362.045,555.707 362.045,338.143 253.141,338.143 253.141,324.245 253.141,323.608 
			253.141,236.596 253.141,118.648 194.167,118.648 194.167,0.821 0.12,0.821 0.12,118.648 0,118.648 0,236.596 36.785,236.596 
			36.785,323.608 0.12,323.608 0.12,338.143 0.12,487.93 0,487.93 0,549.797 0,588.75 38.109,588.75 38.109,549.797 26.861,549.797 
			26.861,487.93 161.124,487.93 161.124,555.707 154.368,555.707 154.368,666.658 534.071,666.658 513.279,555.707 		"/>
	</g>
	<g id="room002">
		<polygon fill="#84D05F" points="512.916,554.139 364.758,554.139 364.758,338.241 499.227,338.241 		"/>
	</g>
	<g id="room003">
		<polygon fill="#84D05F" points="402.928,730.43 167.031,730.43 156.176,669.314 402.928,669.314 		"/>
	</g>
</g>
</svg>
