<?xml version="1.0" encoding="utf-8"?>
<!-- Generator: Adobe Illustrator 15.1.0, SVG Export Plug-In . SVG Version: 6.00 Build 0)  -->
<!DOCTYPE svg PUBLIC "-//W3C//DTD SVG 1.1//EN" "http://www.w3.org/Graphics/SVG/1.1/DTD/svg11.dtd">
<svg version="1.1" id="Layer_1" xmlns="http://www.w3.org/2000/svg" xmlns:xlink="http://www.w3.org/1999/xlink" x="0px" y="0px"
	 width="1000px" height="731.25px" viewBox="0 0 1000 731.25" enable-background="new 0 0 1000 731.25" xml:space="preserve">
<g id="ruuminr">
	<g id="room303">
		<polygon fill="#84D05F" points="633.574,596.963 321.389,596.963 321.389,557.289 241.695,557.289 241.695,730.32 321.389,730.32 
			321.389,728.271 657.801,728.271 		"/>
	</g>
	<g id="room302">
		<polygon fill="#84D05F" points="629.785,176.911 629.785,176.911 640.833,93.237 657.198,2.926 596.449,2.926 596.449,164.041 
			387.221,164.041 387.221,248.997 237.145,248.997 113.723,352.892 114.901,554.824 322.553,554.824 322.553,596.963 
			634.575,596.963 628.061,544.211 619.844,418.125 621.432,262.222 		"/>
	</g>
	<g id="room301_1_">
		<polygon fill="#84D05F" points="470.016,131.208 470.016,103.742 425.854,103.742 425.854,131.208 384.96,131.208 384.96,48.736 
			568.296,48.736 568.296,2.926 384.96,2.926 384.96,0.929 176.795,0.929 170.014,0.929 0,0.929 0,352.892 113.723,352.892 
			236.544,247.543 384.96,247.543 384.96,164.041 594.399,164.041 594.399,131.208 		"/>
	</g>
</g>
</svg>
