<?xml version="1.0" encoding="utf-8"?>
<!-- Generator: Adobe Illustrator 15.1.0, SVG Export Plug-In . SVG Version: 6.00 Build 0)  -->
<!DOCTYPE svg PUBLIC "-//W3C//DTD SVG 1.1//EN" "http://www.w3.org/Graphics/SVG/1.1/DTD/svg11.dtd">
<svg version="1.1" id="Layer_1" xmlns="http://www.w3.org/2000/svg" xmlns:xlink="http://www.w3.org/1999/xlink" x="0px" y="0px"
	 width="1500px" height="731.25px" viewBox="0 0 1500 731.25" enable-background="new 0 0 1500 731.25" xml:space="preserve">
<g id="ruuminr">
	<g id="room101">
		<polygon fill="#F1E9EA" points="450.472,80.926 240.634,80.926 240.634,171.931 450.472,171.931 450.472,112.961 500.27,112.961 
			500.27,80.926 		"/>
	</g>
	<g id="room102">
		<polygon fill="#F1E9EA" points="348.787,261.098 319.668,261.098 261.797,203.382 261.797,173.186 348.787,173.186 		"/>
	</g>
	<g id="room103">
		<rect x="349.328" y="173.186" fill="#F1E9EA" width="56.802" height="108.729"/>
	</g>
	<g id="room104">
		<rect x="406.67" y="173.186" fill="#F1E9EA" width="73.444" height="108.938"/>
	</g>
	<g id="room105">
		<polygon fill="#F1E9EA" points="601.396,218.605 561.581,218.605 561.581,195.101 511.686,195.101 511.686,299.573 
			558.304,299.573 561.581,299.573 614.361,299.573 617.205,255.477 620.215,210.24 601.396,210.24 		"/>
	</g>
	<g id="room106">
		<polygon fill="#F1E9EA" points="615.281,300.996 593.099,300.996 511.686,300.996 511.686,325.086 407.506,325.086 
			407.506,370.505 593.283,370.505 593.283,331.107 615.281,331.107 		"/>
	</g>
	<g id="room107">
		<polygon fill="#F1E9EA" points="613.86,332.445 594.704,332.445 594.704,371.844 407.59,371.844 407.59,448.797 620.29,448.797 
			617.875,420.896 616.063,376.986 		"/>
	</g>
	<g id="room108">
		<polygon fill="#F1E9EA" points="407.59,449.466 407.59,518.807 431.278,518.807 431.278,552.015 448.911,552.015 448.911,588.065 
			642.13,588.065 637.363,564.394 631.253,530.428 624.314,484.551 620.29,449.466 		"/>
	</g>
	<g id="room110">
		<rect x="265.395" y="445.031" fill="#F1E9EA" width="99.285" height="51.272"/>
	</g>
	<g id="room111">
		<polygon fill="#F1E9EA" points="364.68,373.182 365.098,443.609 265.395,443.609 265.395,324.797 316.417,324.797 		"/>
	</g>
	<g id="room112">
		<polygon fill="#F1E9EA" points="233.106,325.587 233.106,234.953 182.844,234.953 182.844,357.121 233.106,357.121 
			263.971,357.121 263.971,325.587 		"/>
	</g>
	<g id="room113">
		<rect x="108.597" y="80.065" fill="#F1E9EA" width="73.443" height="105.912"/>
	</g>
	<g id="room114">
		<polygon fill="#F1E9EA" points="225.53,587.646 225.53,553.354 253.307,553.354 253.307,535.536 263.971,535.536 263.971,358.544 
			108.597,358.544 108.597,535.536 108.597,553.354 108.597,642.184 225.53,642.184 225.53,642.017 283.21,642.017 283.21,587.646 
					"/>
	</g>
</g>
</svg>
