<?xml version="1.0" encoding="utf-8"?>
<!-- Generator: Adobe Illustrator 15.1.0, SVG Export Plug-In . SVG Version: 6.00 Build 0)  -->
<!DOCTYPE svg PUBLIC "-//W3C//DTD SVG 1.1//EN" "http://www.w3.org/Graphics/SVG/1.1/DTD/svg11.dtd">
<svg version="1.1" id="Layer_1" xmlns="http://www.w3.org/2000/svg" xmlns:xlink="http://www.w3.org/1999/xlink" x="0px" y="0px"
	 width="1500px" height="731.25px" viewBox="1517.717 739.887 1500 731.25" enable-background="new 1517.717 739.887 1500 731.25"
	 xml:space="preserve">
<g id="ruuminr">
	<g id="room001">
		<polygon fill="#C5D3F5" points="2170.999,1284.448 2170.999,1074.853 2066.084,1074.853 2066.084,1061.465 2066.084,1060.851 
			2066.084,977.026 2066.084,863.398 2009.27,863.398 2009.27,749.887 1822.331,749.887 1822.331,863.398 1822.215,863.398 
			1822.215,977.026 1857.652,977.026 1857.652,1060.851 1822.331,1060.851 1822.331,1074.853 1822.331,1219.153 1822.215,1219.153 
			1822.215,1278.756 1822.215,1316.282 1858.928,1316.282 1858.928,1278.756 1848.092,1278.756 1848.092,1219.153 
			1977.437,1219.153 1977.437,1284.448 1970.929,1284.448 1970.929,1391.337 2336.724,1391.337 2316.694,1284.448 		"/>
	</g>
	<g id="room002">
		<polygon fill="#C5D3F5" points="2316.345,1282.938 2173.612,1282.938 2173.612,1074.948 2303.156,1074.948 		"/>
	</g>
	<g id="room003">
		<polygon fill="#C5D3F5" points="2210.385,1452.772 1983.129,1452.772 1972.671,1393.895 2210.385,1393.895 		"/>
	</g>
</g>
</svg>
